<?xml version="1.0" encoding="UTF-8" standalone="no"?>
<!-- Generator: Adobe Illustrator 27.0.1, SVG Export Plug-In . SVG Version: 6.00 Build 0)  -->

<svg
   version="1.1"
   x="0px"
   y="0px"
   viewBox="0 0 726.1 241.1"
   style="enable-background:new 0 0 726.1 241.1;"
   xml:space="preserve"
   id="svg72"
   sodipodi:docname="logo_IOL_conData_23-24.svg"
   inkscape:version="1.1 (c68e22c387, 2021-05-23)"
   xmlns:inkscape="http://www.inkscape.org/namespaces/inkscape"
   xmlns:sodipodi="http://sodipodi.sourceforge.net/DTD/sodipodi-0.dtd"
   xmlns="http://www.w3.org/2000/svg"
   xmlns:svg="http://www.w3.org/2000/svg"><defs
   id="defs76" /><sodipodi:namedview
   id="namedview74"
   pagecolor="#ffffff"
   bordercolor="#666666"
   borderopacity="1.0"
   inkscape:pageshadow="2"
   inkscape:pageopacity="0.0"
   inkscape:pagecheckerboard="0"
   showgrid="false"
   inkscape:zoom="0.82357805"
   inkscape:cx="156.0265"
   inkscape:cy="63.746235"
   inkscape:window-width="1920"
   inkscape:window-height="1009"
   inkscape:window-x="1912"
   inkscape:window-y="-8"
   inkscape:window-maximized="1"
   inkscape:current-layer="svg72" />
<style
   type="text/css"
   id="style2">
	.st0{fill:#FFFFFF;}
	.st1{fill:none;}
	.st2{fill:none;stroke:#FFFFFF;stroke-width:2;stroke-miterlimit:10;}
</style>
<rect
   style="fill:#0066cc;fill-opacity:1;stroke:#0066cc;stroke-width:1.48785"
   id="rect100"
   width="726.97668"
   height="244.32664"
   x="2.293611"
   y="-0.13481627" /><g
   id="Layer_2">
</g>
<g
   id="Layer_1">
	<g
   id="g21">
		<g
   id="g19">
			<path
   class="st0"
   d="M511.9,203.4h-22v-2.1l9.4-9.8c2.6-2.7,4.5-4.8,5.5-6.3s1.8-2.8,2.3-4.1c0.5-1.3,0.7-2.7,0.7-4.1     c0-2.1-0.7-3.8-2.1-5.1c-1.4-1.3-3.2-2-5.4-2c-2.9,0-5.7,1.1-8.4,3.2l-1.3-1.7c2.9-2.5,6.2-3.7,9.8-3.7c3.1,0,5.5,0.8,7.2,2.5     c1.8,1.6,2.6,3.9,2.6,6.8c0,2.3-0.6,4.6-1.8,6.8c-1.2,2.2-3.3,4.9-6.5,8.1l-9,9.3v0.1h18.8V203.4z"
   id="path5" />
			<path
   class="st0"
   d="M540.7,185.7c0,6.2-0.9,10.8-2.8,13.7c-1.9,3-4.7,4.5-8.6,4.5c-3.7,0-6.5-1.5-8.4-4.6     c-1.9-3.1-2.9-7.6-2.9-13.6c0-6.1,0.9-10.7,2.8-13.6c1.9-3,4.7-4.4,8.5-4.4c3.7,0,6.5,1.5,8.5,4.6     C539.8,175.3,540.7,179.8,540.7,185.7z M520.7,185.7c0,5.5,0.7,9.5,2.1,12.1c1.4,2.6,3.6,3.9,6.5,3.9c3,0,5.2-1.3,6.6-4     s2.1-6.7,2.1-12c0-5.2-0.7-9.2-2.1-11.8c-1.4-2.7-3.6-4-6.6-4s-5.2,1.3-6.6,4C521.4,176.5,520.7,180.5,520.7,185.7z"
   id="path7" />
			<path
   class="st0"
   d="M568.2,203.4h-22v-2.1l9.4-9.8c2.6-2.7,4.5-4.8,5.5-6.3s1.8-2.8,2.3-4.1c0.5-1.3,0.7-2.7,0.7-4.1     c0-2.1-0.7-3.8-2.1-5.1c-1.4-1.3-3.2-2-5.4-2c-2.9,0-5.7,1.1-8.4,3.2l-1.3-1.7c2.9-2.5,6.2-3.7,9.8-3.7c3.1,0,5.5,0.8,7.2,2.5     c1.8,1.6,2.6,3.9,2.6,6.8c0,2.3-0.6,4.6-1.8,6.8c-1.2,2.2-3.3,4.9-6.5,8.1l-9,9.3v0.1h18.8V203.4z"
   id="path9" />
			<path
   class="st0"
   d="M595.2,176.5c0,2.2-0.7,4-2.1,5.5c-1.4,1.5-3.2,2.4-5.5,2.9v0.1c2.8,0.4,5,1.3,6.5,2.7     c1.5,1.4,2.2,3.4,2.2,5.8c0,3.3-1.1,5.8-3.4,7.6c-2.2,1.8-5.5,2.7-9.7,2.7c-3.6,0-6.7-0.7-9.4-2v-2.4c1.3,0.7,2.9,1.3,4.5,1.7     c1.7,0.4,3.3,0.6,4.7,0.6c3.5,0,6.2-0.7,8-2.2c1.8-1.4,2.7-3.5,2.7-6.1c0-2.3-0.9-4.1-2.7-5.4c-1.8-1.3-4.5-1.9-8-1.9h-3.8v-2.3     h3.9c2.9,0,5.2-0.7,6.9-2.1s2.6-3.3,2.6-5.6c0-2-0.7-3.5-2.1-4.7c-1.4-1.2-3.2-1.8-5.5-1.8c-1.8,0-3.3,0.2-4.8,0.7     c-1.4,0.5-3.1,1.3-4.9,2.5l-1.2-1.6c1.4-1.1,3-2,4.9-2.7s3.9-1,5.9-1c3.2,0,5.7,0.8,7.5,2.3C594.3,171.5,595.2,173.7,595.2,176.5     z"
   id="path11" />
			<path
   class="st0"
   d="M616,168.2l-13.1,35.2h-2.5l13.1-35.2H616z"
   id="path13" />
			<path
   class="st0"
   d="M641.3,203.4h-22v-2.1l9.4-9.8c2.6-2.7,4.5-4.8,5.5-6.3s1.8-2.8,2.3-4.1c0.5-1.3,0.7-2.7,0.7-4.1     c0-2.1-0.7-3.8-2.1-5.1c-1.4-1.3-3.2-2-5.4-2c-2.9,0-5.7,1.1-8.4,3.2l-1.3-1.7c2.9-2.5,6.2-3.7,9.8-3.7c3.1,0,5.5,0.8,7.2,2.5     c1.8,1.6,2.6,3.9,2.6,6.8c0,2.3-0.6,4.6-1.8,6.8c-1.2,2.2-3.3,4.9-6.5,8.1l-9,9.3v0.1h18.8V203.4z"
   id="path15" />
			<path
   class="st0"
   d="M672.2,194.4h-6.1v9h-2.3v-9h-18.1v-1.6l17.5-24.8h2.9v24.3h6.1V194.4z M663.9,192.3v-10.1     c0-4.8,0.1-8.9,0.3-12.2H664c-0.3,0.6-1.3,2.1-3,4.5l-12.4,17.7H663.9z"
   id="path17" />
		</g>
	</g>
	<g
   id="Arrow_24">
		<rect
   x="80.5"
   y="76.1"
   class="st1"
   width="76.5"
   height="84"
   id="rect23" />
		<path
   class="st0"
   d="M118.8,35.3c-46.4,0-84,37.6-84,84c0,46.4,37.6,84,84,84c46.4,0,84-37.6,84-84    C202.7,72.9,165.1,35.3,118.8,35.3z M174.3,120.3c-1,1.2-42.6,48.3-42.6,48.3s-1.7,2.1-5,2.1s-40.5,0-42.3,0    c-1.8,0-2.7-1.4-1.4-2.9c1.3-1.5,40.6-46,41.7-47.3c0,0,2.5-2.1,0.1-4.9c-1.1-1.3-40.4-45.8-41.7-47.3c-1.3-1.5-0.4-2.9,1.4-2.9    c1.8,0,39,0,42.3,0s5,2.1,5,2.1s40.6,46,42.6,48.3C176.4,118.1,174.3,120.3,174.3,120.3z"
   id="path25" />
	</g>
	<rect
   x="658.8"
   y="192.7"
   class="st1"
   width="7.6"
   height="1.8"
   id="rect28" />
</g>
<g
   id="Layer_4">
	<g
   id="g35">
		<path
   class="st0"
   d="M216.6,169c0-6.4,1.7-11.7,5.2-15.8c3.5-4.1,8.2-6.2,14.1-6.2c6,0,10.7,2.1,14.2,6.2    c3.5,4.1,5.2,9.4,5.2,15.8v0.9c0,6.4-1.7,11.7-5.2,15.8c-3.5,4.1-8.2,6.2-14.1,6.2c-6,0-10.7-2.1-14.2-6.2    c-3.5-4.1-5.2-9.4-5.2-15.8V169z M224.5,169.9c0,4.6,1,8.4,2.9,11.3c1.9,3,4.8,4.5,8.6,4.5c3.7,0,6.6-1.5,8.5-4.5    c1.9-3,2.9-6.8,2.9-11.3V169c0-4.5-1-8.3-2.9-11.3c-1.9-3-4.8-4.5-8.6-4.5c-3.8,0-6.6,1.5-8.6,4.5c-1.9,3-2.9,6.8-2.9,11.3V169.9z    "
   id="path31" />
		<path
   class="st0"
   d="M261.4,186l6.5-1.1V154l-6.5-1.1v-5.1h13.5l0.6,6.4c1.4-2.3,3.2-4.1,5.4-5.3c2.2-1.3,4.6-1.9,7.4-1.9    c4.7,0,8.3,1.4,10.8,4.1c2.6,2.7,3.8,6.9,3.8,12.6v21.1l6.5,1.1v5h-20.9v-5l6.5-1.1v-21c0-3.8-0.8-6.5-2.3-8.1    c-1.5-1.6-3.8-2.4-6.9-2.4c-2.3,0-4.3,0.5-6,1.6c-1.7,1.1-3.1,2.6-4.2,4.5v25.4l6.5,1.1v5h-20.9V186z"
   id="path33" />
	</g>
	<g
   id="g57">
		<path
   class="st0"
   d="M222.9,114.9c-1.1,0-2.1-0.2-3-0.7c-0.9-0.5-1.4-1.2-1.4-2.2V57.2c0-1,0.5-1.7,1.4-2.2c0.9-0.4,1.9-0.7,3-0.7    c1.1,0,2.1,0.2,3,0.7c0.9,0.4,1.4,1.2,1.4,2.2V112c0,0.9-0.5,1.7-1.4,2.2C225,114.6,224,114.9,222.9,114.9z"
   id="path37" />
		<path
   class="st0"
   d="M253.4,115.5c-3.6,0-6.8-0.5-9.5-1.6c-2.8-1-4.9-2.3-6.5-3.8c-1.5-1.5-2.3-3-2.3-4.3c0-0.7,0.2-1.4,0.5-2.1    c0.4-0.7,0.8-1.3,1.4-1.9c0.6-0.5,1.2-0.8,1.9-0.8c0.8,0,1.5,0.3,2.2,1c0.7,0.6,1.5,1.4,2.5,2.3c1,0.9,2.2,1.7,3.7,2.3    c1.5,0.7,3.4,1,5.7,1c2,0,3.8-0.3,5.3-1c1.6-0.6,2.8-1.6,3.7-2.9c0.9-1.3,1.4-2.9,1.4-4.9c0-2.1-0.5-3.8-1.4-5.2    c-1-1.4-2.3-2.5-3.9-3.5c-1.6-0.9-3.4-1.8-5.3-2.6c-1.9-0.8-3.8-1.6-5.7-2.5c-1.9-0.9-3.7-1.9-5.3-3.2c-1.6-1.2-2.9-2.8-3.8-4.7    c-1-1.9-1.4-4.3-1.4-7.2c0-3,0.6-5.6,1.7-7.6c1.1-2,2.6-3.7,4.5-4.9c1.9-1.2,3.9-2.1,6.2-2.6c2.3-0.5,4.5-0.8,6.7-0.8    c1.4,0,2.9,0.1,4.6,0.3c1.7,0.2,3.3,0.5,4.9,1c1.6,0.5,2.9,1.1,4,1.9c1,0.8,1.6,1.7,1.6,2.8c0,0.6-0.1,1.2-0.4,1.9    c-0.3,0.7-0.7,1.4-1.2,1.9c-0.5,0.6-1.2,0.8-2,0.8c-0.7,0-1.5-0.3-2.4-0.8c-0.9-0.5-2-1-3.4-1.6c-1.4-0.5-3.3-0.8-5.6-0.8    c-2,0-3.8,0.3-5.3,0.8c-1.6,0.6-2.8,1.4-3.7,2.4c-0.9,1.1-1.3,2.5-1.3,4.3c0,1.8,0.5,3.2,1.4,4.3c1,1.1,2.2,2.1,3.8,2.9    c1.6,0.8,3.4,1.6,5.3,2.3c1.9,0.7,3.8,1.6,5.7,2.5c1.9,1,3.7,2.1,5.3,3.5c1.6,1.4,2.9,3.1,3.9,5.3c1,2.1,1.4,4.8,1.4,7.9    c0,4-0.8,7.3-2.4,9.9c-1.6,2.6-3.9,4.6-6.7,5.8C260.3,114.9,257.1,115.5,253.4,115.5z"
   id="path39" />
		<path
   class="st0"
   d="M298.2,115.4c-3.3,0-6.4-0.6-9.1-1.8c-2.8-1.2-5-3.2-6.7-5.9c-1.7-2.7-2.5-6.3-2.5-10.8V72.8    c0-4.5,0.8-8.1,2.5-10.8c1.7-2.7,3.9-4.7,6.7-5.9c2.8-1.2,5.9-1.8,9.2-1.8c3.8,0,7.1,0.6,9.9,1.9c2.8,1.3,5,3.1,6.5,5.3    c1.6,2.2,2.4,4.8,2.4,7.7c0,1.9-0.4,3.1-1.1,3.7c-0.7,0.6-1.8,0.9-3.3,0.9c-1.3,0-2.4-0.2-3.1-0.7c-0.8-0.5-1.2-1.2-1.2-2.2    c-0.1-0.7-0.2-1.6-0.4-2.6c-0.2-1-0.6-2-1.3-2.9c-0.6-1-1.6-1.8-2.9-2.4c-1.3-0.6-3-1-5.2-1c-3.2,0-5.7,0.9-7.4,2.6    c-1.7,1.7-2.6,4.4-2.6,8.1v24.1c0,3.6,0.9,6.3,2.6,8.1c1.7,1.7,4.3,2.6,7.6,2.6c2.1,0,3.8-0.3,5-1c1.2-0.6,2.2-1.4,2.8-2.4    c0.6-1,1-2,1.2-3.1c0.2-1.1,0.4-2.1,0.5-2.9c0.1-1,0.5-1.8,1.3-2.2c0.8-0.4,1.8-0.7,3-0.7c1.5,0,2.7,0.3,3.4,0.9    c0.7,0.6,1.1,1.8,1.1,3.6c0,3-0.8,5.6-2.4,8c-1.6,2.3-3.8,4.2-6.6,5.5C305.3,114.7,302,115.4,298.2,115.4z"
   id="path41" />
		<path
   class="st0"
   d="M357.9,115.1c-0.7,0-1.4-0.2-1.9-0.7c-0.6-0.5-1.1-1.1-1.4-1.8l-12.2-23.7h-8.3V112c0,0.9-0.5,1.7-1.4,2.2    s-1.9,0.7-3,0.7c-1.1,0-2.1-0.2-3-0.7s-1.4-1.2-1.4-2.2V57.2c0-0.8,0.3-1.4,0.8-2c0.5-0.6,1.3-0.8,2.2-0.8H344    c3.5,0,6.7,0.5,9.5,1.5c2.9,1,5.2,2.8,6.9,5.2c1.7,2.5,2.6,5.8,2.6,10.1c0,3.3-0.5,6.1-1.5,8.3c-1,2.2-2.4,4-4.1,5.3    c-1.7,1.3-3.7,2.2-5.9,2.9l11.6,21.8c0.1,0.2,0.2,0.4,0.2,0.6c0.1,0.2,0.1,0.5,0.1,0.6c0,0.7-0.3,1.4-0.8,2.1    c-0.6,0.7-1.2,1.3-2,1.7C359.6,114.9,358.8,115.1,357.9,115.1z M334.1,81.8h9.9c3.1,0,5.6-0.7,7.4-2.2c1.8-1.5,2.8-4,2.8-7.6    c0-3.6-0.9-6.1-2.8-7.6c-1.8-1.5-4.3-2.2-7.4-2.2h-9.9V81.8z"
   id="path43" />
		<path
   class="st0"
   d="M375.5,114.9c-1.1,0-2.1-0.2-3-0.7c-0.9-0.5-1.4-1.2-1.4-2.2V57.2c0-1,0.5-1.7,1.4-2.2c0.9-0.4,1.9-0.7,3-0.7    c1.1,0,2.1,0.2,3,0.7c0.9,0.4,1.4,1.2,1.4,2.2V112c0,0.9-0.5,1.7-1.4,2.2C377.6,114.6,376.6,114.9,375.5,114.9z"
   id="path45" />
		<path
   class="st0"
   d="M389.5,114.9c-0.9,0-1.6-0.2-2.1-0.7c-0.4-0.5-0.7-1.1-0.7-1.8c0-1,0.3-2,0.9-3.1l25.7-47.1h-22.4    c-0.9,0-1.6-0.4-2.1-1.2c-0.5-0.8-0.8-1.7-0.8-2.7c0-0.9,0.2-1.8,0.7-2.6c0.5-0.8,1.2-1.2,2.2-1.2h30.9c0.9,0,1.6,0.2,2.1,0.7    c0.5,0.5,0.7,1.1,0.7,1.8c0,0.9-0.3,2-1,3.2l-25.7,47H423c0.9,0,1.7,0.4,2.2,1.2c0.5,0.8,0.7,1.7,0.7,2.6c0,0.9-0.2,1.8-0.7,2.6    s-1.2,1.2-2.2,1.2H389.5z"
   id="path47" />
		<path
   class="st0"
   d="M437,114.9c-1.1,0-2.1-0.2-3-0.7c-0.9-0.5-1.4-1.2-1.4-2.2V57.2c0-1,0.5-1.7,1.4-2.2c0.9-0.4,1.9-0.7,3-0.7    c1.1,0,2.1,0.2,3,0.7c0.9,0.4,1.4,1.2,1.4,2.2V112c0,0.9-0.5,1.7-1.4,2.2C439.2,114.6,438.2,114.9,437,114.9z"
   id="path49" />
		<path
   class="st0"
   d="M470.3,115.4c-3.5,0-6.7-0.6-9.5-1.8c-2.8-1.2-5-3.2-6.6-5.9c-1.6-2.7-2.4-6.3-2.4-10.8V72.8    c0-4.5,0.8-8.1,2.4-10.8c1.6-2.7,3.8-4.7,6.6-5.9c2.8-1.2,5.9-1.8,9.5-1.8c3.5,0,6.6,0.6,9.4,1.8c2.8,1.2,5,3.2,6.7,5.9    c1.7,2.7,2.5,6.3,2.5,10.8v24.1c0,4.5-0.8,8.1-2.5,10.8c-1.7,2.7-3.9,4.7-6.7,5.9C476.9,114.8,473.8,115.4,470.3,115.4z     M470.3,107.6c3,0,5.4-0.9,7.2-2.6c1.8-1.7,2.6-4.4,2.6-8.1V72.8c0-3.6-0.9-6.3-2.6-8.1s-4.2-2.6-7.2-2.6c-3.1,0-5.5,0.9-7.2,2.6    s-2.6,4.4-2.6,8.1v24.1c0,3.6,0.9,6.3,2.6,8.1C464.8,106.7,467.2,107.6,470.3,107.6z"
   id="path51" />
		<path
   class="st0"
   d="M503.6,114.9c-1.1,0-2.1-0.2-3-0.7c-0.9-0.5-1.4-1.2-1.4-2.2V57.3c0-1,0.5-1.8,1.4-2.2c0.9-0.4,1.9-0.7,3-0.7    c1,0,1.9,0.2,2.7,0.5c0.7,0.3,1.4,0.8,2,1.5c0.6,0.7,1.2,1.7,1.9,3l18.4,35.8v-38c0-1,0.5-1.7,1.4-2.2c0.9-0.4,1.9-0.7,3-0.7    c1.1,0,2.1,0.2,3,0.7c0.9,0.4,1.4,1.2,1.4,2.2V112c0,0.9-0.5,1.7-1.4,2.2c-0.9,0.5-1.9,0.7-3,0.7c-1.1,0-2.1-0.3-3-0.8    c-0.9-0.6-1.6-1.4-2.2-2.4L508,74v38c0,0.9-0.5,1.7-1.4,2.2C505.7,114.6,504.7,114.9,503.6,114.9z"
   id="path53" />
		<path
   class="st0"
   d="M552.7,114.9c-1.1,0-2.1-0.2-3-0.7c-0.9-0.5-1.4-1.2-1.4-2.2V57.2c0-1,0.5-1.7,1.4-2.2c0.9-0.4,1.9-0.7,3-0.7    c1.1,0,2.1,0.2,3,0.7c0.9,0.4,1.4,1.2,1.4,2.2V112c0,0.9-0.5,1.7-1.4,2.2C554.8,114.6,553.8,114.9,552.7,114.9z"
   id="path55" />
	</g>
	<line
   class="st2"
   x1="484"
   y1="202.4"
   x2="118.8"
   y2="202.4"
   id="line59" />
	<g
   id="g69">
		<path
   class="st0"
   d="M324.1,133.7v-5.1h14.4v56.2l6.5,1.1v5h-20.9v-5l6.5-1.1v-50L324.1,133.7z"
   id="path61" />
		<path
   class="st0"
   d="M351,186l6.5-1.1V154l-6.5-1.1v-5.1h14.4v37.1l6.5,1.1v5H351V186z M365.4,136.7h-7.9v-8h7.9V136.7z"
   id="path63" />
		<path
   class="st0"
   d="M376.7,186l6.5-1.1V154l-6.5-1.1v-5.1h13.5l0.6,6.4c1.4-2.3,3.2-4.1,5.4-5.3c2.2-1.3,4.6-1.9,7.4-1.9    c4.7,0,8.3,1.4,10.8,4.1c2.6,2.7,3.8,6.9,3.8,12.6v21.1l6.5,1.1v5h-20.9v-5l6.5-1.1v-21c0-3.8-0.8-6.5-2.3-8.1s-3.8-2.4-6.9-2.4    c-2.3,0-4.3,0.5-6,1.6c-1.7,1.1-3.1,2.6-4.2,4.5v25.4l6.5,1.1v5h-20.9V186z"
   id="path65" />
		<path
   class="st0"
   d="M449.9,191.8c-6,0-10.8-2-14.4-6c-3.6-4-5.3-9.2-5.3-15.6v-1.8c0-6.2,1.8-11.3,5.5-15.4c3.7-4.1,8-6.1,13-6.1    c5.8,0,10.2,1.8,13.2,5.3c3,3.5,4.5,8.2,4.5,14.1v4.9h-28l-0.1,0.2c0.1,4.2,1.1,7.6,3.2,10.2c2,2.7,4.9,4,8.5,4c2.7,0,5-0.4,7-1.1    c2-0.8,3.7-1.8,5.2-3.1l3.1,5.1c-1.5,1.5-3.6,2.8-6.1,3.8S453.5,191.8,449.9,191.8z M448.7,153.2c-2.6,0-4.9,1.1-6.8,3.3    s-3,5-3.4,8.4l0.1,0.2h19.9v-1c0-3.1-0.8-5.7-2.5-7.8S451.9,153.2,448.7,153.2z"
   id="path67" />
	</g>
</g>
</svg>
