<svg id="Contenuti" xmlns="http://www.w3.org/2000/svg" viewBox="0 0 34.037 34.037"><defs><style>.cls-1{fill:#65dde0;}</style></defs><title>slideshare-footer</title><path class="cls-1" d="M207.4,3978.155H191.662c-1.579,0-2.018.541-2.018,2.266v9.522a14.061,14.061,0,0,0,7.8,1.4,1.645,1.645,0,0,1,1.342.384q0.067,0.056.141,0.125a8.789,8.789,0,0,0,.867.715c0.058-.778.493-1.282,1.666-1.224a13.984,13.984,0,0,0,7.957-1.476v-9.442C209.421,3978.8,208.893,3978.155,207.4,3978.155Zm-11.325,12.018a2.864,2.864,0,1,1,3.056-2.858A2.961,2.961,0,0,1,196.073,3990.173Zm7.111,0a2.864,2.864,0,1,1,3.055-2.858A2.962,2.962,0,0,1,203.183,3990.173Z" transform="translate(-182.612 -3971.112)"/><path class="cls-1" d="M199.63,3971.112a17.019,17.019,0,1,0,17.019,17.019A17.019,17.019,0,0,0,199.63,3971.112Zm6.831,22.25c2.794,9.5-6.805,11.006-6.658,6.136,0,0.088-.005-2.61-0.009-4.621-0.205-.05-0.424-0.108-0.676-0.167,0,2.024-.009,4.879-0.009,4.788,0.147,4.87-9.446,3.361-6.658-6.136a13.369,13.369,0,0,1-5.258-3.565c-0.464-.687.032-1.407,0.79-0.878,0.1,0.073.2,0.142,0.305,0.211v-9.823a2.379,2.379,0,0,1,2.285-2.463h17.779a2.379,2.379,0,0,1,2.285,2.463v9.814c0.1-.066.195-0.132,0.292-0.2,0.758-.529,1.254.191,0.79,0.879A13.37,13.37,0,0,1,206.461,3993.362Z" transform="translate(-182.612 -3971.112)"/></svg>