<svg id="Contenuti" xmlns="http://www.w3.org/2000/svg" viewBox="0 0 34.335 34.335"><defs><style>.cls-1{fill:#65dde0;}</style></defs><title>twitter-footer</title><path class="cls-1" d="M76.781,3972.386a17.167,17.167,0,1,0,17.167,17.167A17.168,17.168,0,0,0,76.781,3972.386Zm8.541,13.313,0.013,0.547a12.02,12.02,0,0,1-18.5,10.127,8.689,8.689,0,0,0,1.009.06,8.481,8.481,0,0,0,5.249-1.809,4.234,4.234,0,0,1-3.948-2.936,4.347,4.347,0,0,0,1.91-.073,4.231,4.231,0,0,1-3.391-4.144v-0.054a4.22,4.22,0,0,0,1.914.53,4.233,4.233,0,0,1-1.309-5.642,12,12,0,0,0,8.712,4.416,4.23,4.23,0,0,1,7.2-3.854,8.559,8.559,0,0,0,2.685-1.026,4.238,4.238,0,0,1-1.858,2.339,8.472,8.472,0,0,0,2.427-.665A8.543,8.543,0,0,1,85.322,3985.7Z" transform="translate(-59.614 -3972.386)"/></svg>