<svg id="Contenuti" xmlns="http://www.w3.org/2000/svg" viewBox="0 0 34.997 34.997"><defs><style>.cls-1{fill:#65dde0;}</style></defs><title>youtube-footer</title><polygon class="cls-1" points="9.193 18.79 10.58 18.79 10.58 26.299 11.893 26.299 11.893 18.79 13.306 18.79 13.306 17.56 9.193 17.56 9.193 18.79"/><path class="cls-1" d="M120.523,3992.157a1.6,1.6,0,0,0-1.219.706v-2.854h-1.18v8.739h1.18v-0.631a1.608,1.608,0,0,0,1.219.721,0.934,0.934,0,0,0,.943-0.732,5.184,5.184,0,0,0,.12-1.312V3994.2a5,5,0,0,0-.12-1.309A0.933,0.933,0,0,0,120.523,3992.157Zm-0.118,4.729c0,0.589-.173.879-0.513,0.879a0.842,0.842,0,0,1-.588-0.29v-3.968a0.847,0.847,0,0,1,.588-0.287c0.34,0,.513.3,0.513,0.889v2.779Z" transform="translate(-100.232 -3972.45)"/><path class="cls-1" d="M115.922,3997.213a1.035,1.035,0,0,1-.746.552,0.271,0.271,0,0,1-.276-0.276,3.644,3.644,0,0,1-.011-0.458v-4.794h-1.18v5.148a3.319,3.319,0,0,0,.1.968,0.725,0.725,0,0,0,.76.485,1.89,1.89,0,0,0,1.349-.8v0.71H117.1v-6.512h-1.181v4.976Z" transform="translate(-100.232 -3972.45)"/><path class="cls-1" d="M116.935,3986.221c0.384,0,.569-0.3.569-0.913v-2.768c0-.609-0.184-0.912-0.569-0.912s-0.569.3-.569,0.912v2.768C116.366,3985.917,116.551,3986.221,116.935,3986.221Z" transform="translate(-100.232 -3972.45)"/><path class="cls-1" d="M117.731,3972.45a17.5,17.5,0,1,0,17.5,17.5A17.5,17.5,0,0,0,117.731,3972.45Zm1.946,8.184h1.189v4.845a2.807,2.807,0,0,0,.014.464,0.273,0.273,0,0,0,.28.279,1.048,1.048,0,0,0,.753-0.558v-5.03h1.192v6.58h-1.192V3986.5a1.914,1.914,0,0,1-1.362.808,0.732,0.732,0,0,1-.768-0.489,3.325,3.325,0,0,1-.106-0.978v-5.2h0Zm-4.5,2.146a2.557,2.557,0,0,1,.373-1.55,1.768,1.768,0,0,1,2.779,0,2.584,2.584,0,0,1,.369,1.55v2.3a2.575,2.575,0,0,1-.369,1.547,1.771,1.771,0,0,1-2.779,0,2.549,2.549,0,0,1-.373-1.547v-2.3Zm-3.189-4.4,0.939,3.467,0.9-3.467h1.337l-1.591,5.254v3.576h-1.322v-3.576a21.748,21.748,0,0,0-.809-2.794c-0.279-.82-0.569-1.642-0.847-2.46h1.391Zm15.166,20.939a2.467,2.467,0,0,1-2.11,1.918,65.58,65.58,0,0,1-7.311.27,65.577,65.577,0,0,1-7.311-.27,2.465,2.465,0,0,1-2.11-1.918,31.267,31.267,0,0,1,0-9.23,2.465,2.465,0,0,1,2.109-1.918,65.587,65.587,0,0,1,7.311-.27,65.58,65.58,0,0,1,7.311.27,2.468,2.468,0,0,1,2.111,1.918A31.528,31.528,0,0,1,127.151,3999.323Z" transform="translate(-100.232 -3972.45)"/><path class="cls-1" d="M124.281,3992.157a1.676,1.676,0,0,0-1.413.667,2.539,2.539,0,0,0-.364,1.534v2.281a2.514,2.514,0,0,0,.379,1.531,1.688,1.688,0,0,0,1.428.667,1.631,1.631,0,0,0,1.426-.706,1.681,1.681,0,0,0,.276-0.707c0.011-.118.025-0.38,0.025-0.76v-0.171h-1.2a7.73,7.73,0,0,1-.026.8,0.507,0.507,0,0,1-.527.473c-0.405,0-.6-0.3-0.6-0.9v-1.155h2.36v-1.349a2.559,2.559,0,0,0-.365-1.534A1.638,1.638,0,0,0,124.281,3992.157Zm0.577,2.568h-1.18v-0.6q0-.9.592-0.9c0.39,0,.588.3,0.588,0.9v0.6Z" transform="translate(-100.232 -3972.45)"/></svg>